<svg width="22" height="24" viewBox="0 0 22 24" fill="none" xmlns="http://www.w3.org/2000/svg">
<path d="M5.91455 23.6484C5.48844 23.6484 5.11768 23.5682 4.80225 23.4077C4.48682 23.2472 4.23779 23.0148 4.05518 22.7104C3.87809 22.4061 3.78125 22.0409 3.76465 21.6147L3.03418 5.71875H1.32422C1.1416 5.71875 0.98112 5.65234 0.842773 5.51953C0.704427 5.38118 0.635254 5.21794 0.635254 5.02979C0.635254 4.84163 0.704427 4.67839 0.842773 4.54004C0.98112 4.40169 1.1416 4.33252 1.32422 4.33252H20.5322C20.7259 4.33252 20.8892 4.40169 21.022 4.54004C21.1548 4.67285 21.2212 4.8361 21.2212 5.02979C21.2212 5.21794 21.1548 5.38118 21.022 5.51953C20.8892 5.65234 20.7259 5.71875 20.5322 5.71875H18.8389L18.1084 21.6147C18.0918 22.0409 17.9922 22.4061 17.8096 22.7104C17.6325 23.0148 17.3835 23.2472 17.0625 23.4077C16.7471 23.5682 16.3791 23.6484 15.9585 23.6484H5.91455ZM7.57471 20.5938C7.75179 20.5938 7.8929 20.5412 7.99805 20.436C8.10319 20.3309 8.15299 20.1981 8.14746 20.0376L7.80713 8.15918C7.8016 7.99316 7.74349 7.86312 7.63281 7.76904C7.52767 7.66943 7.39209 7.61963 7.22607 7.61963C7.04899 7.61963 6.90788 7.66943 6.80273 7.76904C6.69759 7.86865 6.64502 8.00146 6.64502 8.16748L6.99365 20.0376C6.99919 20.2036 7.05452 20.3364 7.15967 20.436C7.26481 20.5412 7.40316 20.5938 7.57471 20.5938ZM10.9365 20.5938C11.1081 20.5938 11.2492 20.5412 11.3599 20.436C11.4705 20.3309 11.5259 20.1981 11.5259 20.0376V8.16748C11.5259 8.007 11.4705 7.87695 11.3599 7.77734C11.2492 7.6722 11.1081 7.61963 10.9365 7.61963C10.7594 7.61963 10.6156 7.6722 10.5049 7.77734C10.3942 7.87695 10.3389 8.007 10.3389 8.16748V20.0376C10.3389 20.1981 10.3942 20.3309 10.5049 20.436C10.6156 20.5412 10.7594 20.5938 10.9365 20.5938ZM14.29 20.5938C14.4616 20.5938 14.5999 20.5439 14.7051 20.4443C14.8102 20.3447 14.8656 20.2119 14.8711 20.0459L15.2114 8.17578C15.217 8.00977 15.1644 7.87695 15.0537 7.77734C14.9486 7.6722 14.8075 7.61963 14.6304 7.61963C14.4699 7.61963 14.3343 7.66943 14.2236 7.76904C14.113 7.86865 14.0576 8.00146 14.0576 8.16748L13.709 20.0376C13.709 20.2036 13.7616 20.3364 13.8667 20.436C13.9718 20.5412 14.113 20.5938 14.29 20.5938ZM6.21338 4.67285V2.63086C6.21338 1.86165 6.44857 1.25846 6.91895 0.821289C7.38932 0.378581 8.03125 0.157227 8.84473 0.157227H12.9951C13.8086 0.157227 14.4505 0.378581 14.9209 0.821289C15.3968 1.25846 15.6348 1.86165 15.6348 2.63086V4.67285H13.9912V2.71387C13.9912 2.40951 13.8944 2.16878 13.7007 1.9917C13.507 1.80908 13.2441 1.71777 12.9121 1.71777H8.93604C8.604 1.71777 8.34115 1.80908 8.14746 1.9917C7.95931 2.16878 7.86523 2.40951 7.86523 2.71387V4.67285H6.21338Z" fill="white"/>
</svg>
