<svg width="20" height="16" viewBox="0 0 20 16" fill="none" xmlns="http://www.w3.org/2000/svg">
<path d="M1.64404 15.8511C1.32861 15.8511 1.06576 15.7459 0.855469 15.5356C0.645182 15.3254 0.540039 15.068 0.540039 14.7637V12.3232L3.71924 12.7881V14.7637C3.71924 15.068 3.6141 15.3254 3.40381 15.5356C3.19352 15.7459 2.93066 15.8511 2.61523 15.8511H1.64404ZM17.2578 15.8511C16.9479 15.8511 16.6878 15.7459 16.4775 15.5356C16.2673 15.3254 16.1621 15.068 16.1621 14.7637V12.7881L19.333 12.3232V14.7637C19.333 15.068 19.2279 15.3254 19.0176 15.5356C18.8073 15.7459 18.5472 15.8511 18.2373 15.8511H17.2578ZM9.93652 13.5684C9.23926 13.5684 8.50326 13.5601 7.72852 13.5435C6.95378 13.5269 6.19287 13.5047 5.4458 13.4771C4.69873 13.4494 4.01253 13.4162 3.38721 13.3774C2.76742 13.3387 2.26107 13.2972 1.86816 13.2529C1.30924 13.1865 0.877604 13.0011 0.573242 12.6968C0.26888 12.3924 0.116699 11.9718 0.116699 11.4351V9.97412C0.116699 9.50928 0.149902 9.09977 0.216309 8.74561C0.288249 8.39144 0.398926 8.06217 0.54834 7.75781C0.703288 7.44792 0.910807 7.12695 1.1709 6.79492L1.86816 5.89014C1.96777 5.39209 2.08952 4.90234 2.2334 4.4209C2.37728 3.93392 2.51839 3.49674 2.65674 3.10938C2.79508 2.71647 2.91406 2.41764 3.01367 2.21289C3.23503 1.74805 3.55322 1.37451 3.96826 1.09229C4.3833 0.810059 4.86751 0.635742 5.4209 0.569336C5.60352 0.547201 5.91341 0.527832 6.35059 0.51123C6.79329 0.494629 7.32178 0.480794 7.93604 0.469727C8.55583 0.458659 9.22266 0.453125 9.93652 0.453125C10.6504 0.453125 11.3145 0.458659 11.9287 0.469727C12.5485 0.480794 13.077 0.494629 13.5142 0.51123C13.9569 0.527832 14.2723 0.547201 14.4604 0.569336C15.0083 0.64681 15.4897 0.823893 15.9048 1.10059C16.3254 1.37728 16.6463 1.74805 16.8677 2.21289C16.9618 2.41764 17.078 2.71647 17.2163 3.10938C17.3602 3.49674 17.5013 3.93392 17.6396 4.4209C17.7835 4.90234 17.9053 5.39209 18.0049 5.89014L18.7104 6.79492C18.965 7.12695 19.1698 7.44792 19.3247 7.75781C19.4797 8.06217 19.5903 8.39144 19.6567 8.74561C19.7231 9.09977 19.7563 9.50928 19.7563 9.97412V11.4351C19.7563 11.9718 19.6042 12.3924 19.2998 12.6968C19.001 13.0011 18.5693 13.1865 18.0049 13.2529C17.612 13.2972 17.1029 13.3387 16.4775 13.3774C15.8577 13.4162 15.1743 13.4494 14.4272 13.4771C13.6802 13.5047 12.9193 13.5269 12.1445 13.5435C11.3698 13.5601 10.6338 13.5684 9.93652 13.5684ZM9.93652 12.481C10.6449 12.481 11.3809 12.4754 12.1445 12.4644C12.9137 12.4478 13.6608 12.4256 14.3857 12.3979C15.1107 12.3703 15.7637 12.3398 16.3447 12.3066C16.9258 12.2679 17.3823 12.2292 17.7144 12.1904C18.0685 12.1462 18.3148 12.0327 18.4531 11.8501C18.597 11.6675 18.6689 11.4185 18.6689 11.103V9.97412C18.6689 9.59782 18.644 9.27409 18.5942 9.00293C18.55 8.73177 18.467 8.47998 18.3452 8.24756C18.229 8.0096 18.063 7.74951 17.8472 7.46729L16.9922 6.35498C16.9368 6.05615 16.8649 5.73519 16.7764 5.39209C16.6878 5.04346 16.591 4.70036 16.4858 4.36279C16.3807 4.02523 16.2756 3.71257 16.1704 3.4248C16.0653 3.13704 15.9684 2.89909 15.8799 2.71094C15.7415 2.42318 15.5423 2.19352 15.2822 2.02197C15.0277 1.84489 14.7039 1.73145 14.311 1.68164C14.1506 1.66504 13.8628 1.64567 13.4478 1.62354C13.0382 1.6014 12.5319 1.58203 11.9287 1.56543C11.3311 1.54883 10.667 1.54053 9.93652 1.54053C9.21159 1.54053 8.55029 1.54883 7.95264 1.56543C7.35498 1.58203 6.84863 1.6014 6.43359 1.62354C6.01855 1.64567 5.72249 1.66504 5.54541 1.68164C5.16911 1.73145 4.85091 1.84489 4.59082 2.02197C4.33073 2.19352 4.13428 2.42318 4.00146 2.71094C3.91292 2.89909 3.81331 3.13704 3.70264 3.4248C3.59749 3.71257 3.49235 4.02523 3.38721 4.36279C3.28206 4.70036 3.18522 5.04346 3.09668 5.39209C3.00814 5.73519 2.9362 6.05615 2.88086 6.35498L2.03418 7.46729C1.81836 7.74951 1.64958 8.0096 1.52783 8.24756C1.41162 8.47998 1.32861 8.73177 1.27881 9.00293C1.229 9.27409 1.2041 9.59782 1.2041 9.97412V11.103C1.2041 11.4185 1.27604 11.6675 1.41992 11.8501C1.5638 12.0327 1.81006 12.1462 2.15869 12.1904C2.49626 12.2292 2.95557 12.2679 3.53662 12.3066C4.11768 12.3398 4.7679 12.3703 5.4873 12.3979C6.21224 12.4256 6.95931 12.4478 7.72852 12.4644C8.49772 12.4754 9.23372 12.481 9.93652 12.481ZM3.95166 11.3271C3.56982 11.3271 3.25163 11.1999 2.99707 10.9453C2.74251 10.6908 2.61523 10.3726 2.61523 9.99072C2.61523 9.61442 2.74251 9.29899 2.99707 9.04443C3.25163 8.78988 3.56982 8.6626 3.95166 8.6626C4.3335 8.6626 4.65169 8.78988 4.90625 9.04443C5.16081 9.29899 5.28809 9.61442 5.28809 9.99072C5.28809 10.3726 5.16081 10.6908 4.90625 10.9453C4.65169 11.1999 4.3335 11.3271 3.95166 11.3271ZM7.74512 11.0034C7.45736 11.0034 7.22493 10.9149 7.04785 10.7378C6.87077 10.5552 6.78223 10.3228 6.78223 10.0405C6.78223 9.7583 6.87077 9.52865 7.04785 9.35156C7.22493 9.16895 7.45736 9.07764 7.74512 9.07764H12.1362C12.4185 9.07764 12.6481 9.16895 12.8252 9.35156C13.0023 9.52865 13.0908 9.7583 13.0908 10.0405C13.0908 10.3228 13.0023 10.5552 12.8252 10.7378C12.6481 10.9149 12.4185 11.0034 12.1362 11.0034H7.74512ZM15.9214 11.3271C15.5451 11.3271 15.2297 11.1999 14.9751 10.9453C14.7205 10.6908 14.5933 10.3726 14.5933 9.99072C14.5933 9.61442 14.7205 9.29899 14.9751 9.04443C15.2297 8.78988 15.5451 8.6626 15.9214 8.6626C16.3032 8.6626 16.6214 8.78988 16.876 9.04443C17.1305 9.29899 17.2578 9.61442 17.2578 9.99072C17.2578 10.3726 17.1305 10.6908 16.876 10.9453C16.6214 11.1999 16.3032 11.3271 15.9214 11.3271ZM4.00977 5.68262C4.08171 5.38932 4.16471 5.07943 4.25879 4.75293C4.3584 4.42643 4.46077 4.12484 4.56592 3.84814C4.67106 3.56592 4.7679 3.34733 4.85645 3.19238C4.96159 3.00977 5.08057 2.87419 5.21338 2.78564C5.35173 2.69157 5.52881 2.6307 5.74463 2.60303C6.04346 2.55876 6.53874 2.52555 7.23047 2.50342C7.9222 2.47575 8.82422 2.46191 9.93652 2.46191C11.0488 2.46191 11.9508 2.47575 12.6426 2.50342C13.3343 2.52555 13.8296 2.55876 14.1284 2.60303C14.3442 2.6307 14.5186 2.69157 14.6514 2.78564C14.7897 2.87419 14.9115 3.00977 15.0166 3.19238C15.1051 3.34733 15.202 3.56592 15.3071 3.84814C15.4123 4.12484 15.5146 4.42643 15.6143 4.75293C15.7139 5.07943 15.7969 5.38932 15.8633 5.68262C15.8965 5.8265 15.8826 5.92887 15.8218 5.98975C15.7609 6.05062 15.653 6.07552 15.498 6.06445C15.0553 6.03678 14.5711 6.01188 14.0454 5.98975C13.5252 5.96208 12.9303 5.93994 12.2607 5.92334C11.5967 5.90674 10.8219 5.89844 9.93652 5.89844C9.05111 5.89844 8.2736 5.90674 7.604 5.92334C6.93994 5.93994 6.34782 5.96208 5.82764 5.98975C5.30745 6.01188 4.82601 6.03678 4.3833 6.06445C4.22282 6.07552 4.11214 6.05062 4.05127 5.98975C3.9904 5.92887 3.97656 5.8265 4.00977 5.68262Z" fill="#FF9F0A"/>
</svg>
