<svg width="19" height="20" viewBox="0 0 19 20" fill="none" xmlns="http://www.w3.org/2000/svg">
<path d="M3.12695 19.2661C1.45215 19.2661 0.614746 18.7192 0.614746 17.6255C0.614746 16.9556 0.819824 16.2412 1.22998 15.4824C1.64014 14.7236 2.23145 14.0093 3.00391 13.3394C3.7832 12.6626 4.72314 12.1123 5.82373 11.6885C6.93115 11.2646 8.18213 11.0527 9.57666 11.0527C10.9644 11.0527 12.2085 11.2646 13.3091 11.6885C14.4165 12.1123 15.3564 12.6626 16.1289 13.3394C16.9082 14.0093 17.5029 14.7236 17.9131 15.4824C18.3232 16.2412 18.5283 16.9556 18.5283 17.6255C18.5283 18.7192 17.6909 19.2661 16.0161 19.2661H3.12695ZM2.64502 17.7178H16.5083C16.6382 17.7178 16.7305 17.6973 16.7852 17.6562C16.8467 17.6152 16.8774 17.54 16.8774 17.4307C16.8774 17.0137 16.7168 16.5317 16.3955 15.9849C16.0811 15.4312 15.6128 14.8979 14.9907 14.3853C14.3687 13.8726 13.603 13.4487 12.6938 13.1138C11.7915 12.772 10.7524 12.6011 9.57666 12.6011C8.40088 12.6011 7.3584 12.772 6.44922 13.1138C5.54004 13.4487 4.77441 13.8726 4.15234 14.3853C3.53027 14.8979 3.05859 15.4312 2.7373 15.9849C2.42285 16.5317 2.26562 17.0137 2.26562 17.4307C2.26562 17.54 2.29297 17.6152 2.34766 17.6562C2.40918 17.6973 2.5083 17.7178 2.64502 17.7178ZM9.57666 9.78125C8.76318 9.78125 8.02148 9.56592 7.35156 9.13525C6.68164 8.69775 6.14502 8.1167 5.7417 7.39209C5.34521 6.66064 5.14697 5.85742 5.14697 4.98242C5.14697 4.11426 5.34521 3.32471 5.7417 2.61377C6.14502 1.90283 6.68164 1.33545 7.35156 0.911621C8.02148 0.487793 8.76318 0.275879 9.57666 0.275879C10.397 0.275879 11.1421 0.484375 11.812 0.901367C12.4819 1.31836 13.0151 1.88232 13.4116 2.59326C13.8081 3.29736 14.0063 4.08691 14.0063 4.96191C14.0063 5.84375 13.8047 6.65039 13.4014 7.38184C13.0049 8.10645 12.4717 8.6875 11.8018 9.125C11.1318 9.5625 10.3901 9.78125 9.57666 9.78125ZM9.57666 8.23291C10.0825 8.23291 10.5439 8.08594 10.9609 7.79199C11.3848 7.49805 11.7231 7.10498 11.9761 6.61279C12.229 6.11377 12.3555 5.56348 12.3555 4.96191C12.3555 4.36719 12.229 3.83398 11.9761 3.3623C11.73 2.88379 11.395 2.50781 10.9712 2.23438C10.5542 1.96094 10.0894 1.82422 9.57666 1.82422C9.0708 1.82422 8.60596 1.96436 8.18213 2.24463C7.76514 2.5249 7.43018 2.9043 7.17725 3.38281C6.92432 3.85449 6.79785 4.3877 6.79785 4.98242C6.79785 5.58398 6.92432 6.13086 7.17725 6.62305C7.43701 7.11523 7.77539 7.5083 8.19238 7.80225C8.61621 8.08936 9.07764 8.23291 9.57666 8.23291Z" fill="#FF9F0A"/>
</svg>
