<svg width="24" height="24" viewBox="0 0 24 24" fill="none" xmlns="http://www.w3.org/2000/svg">
<path d="M22.8985 0.75H21.8436V1.086C20.3751 1.4145 20.164 2.77762 20.0811 3.2985C20.0417 3.54487 19.9619 4.02675 19.8629 4.617H1.49536C0.768609 4.617 0.687234 5.29612 0.782109 5.67188L2.93686 15.1845C3.03136 15.5602 3.42923 15.867 3.81923 15.867H19.9232C20.311 15.867 20.6271 16.1824 20.6271 16.5701C20.6271 16.9579 20.311 17.2733 19.9232 17.2733H2.34548C2.159 17.2733 1.98016 17.3473 1.8483 17.4792C1.71644 17.6111 1.64236 17.7899 1.64236 17.9764C1.64236 18.1629 1.71644 18.3417 1.8483 18.4736C1.98016 18.6054 2.159 18.6795 2.34548 18.6795H3.25673C2.81675 18.9224 2.44995 19.2789 2.19457 19.7117C1.93919 20.1446 1.80457 20.638 1.80473 21.1406H2.50786C2.50786 22.305 3.45286 23.25 4.61723 23.25C5.78161 23.25 6.72661 22.305 6.72661 21.1406H7.42973C7.42982 20.638 7.29512 20.1446 7.03968 19.7117C6.78424 19.2788 6.41739 18.9224 5.97736 18.6795H15.9126C15.4726 18.9224 15.1057 19.2788 14.8503 19.7117C14.5948 20.1446 14.4601 20.638 14.4602 21.1406H15.1634C15.1738 21.6933 15.4006 22.2198 15.7952 22.6069C16.1897 22.9941 16.7204 23.211 17.2731 23.211C17.8259 23.211 18.3565 22.9941 18.7511 22.6069C19.1456 22.2198 19.3724 21.6933 19.3829 21.1406H20.086C20.086 20.6381 19.9514 20.1447 19.696 19.7118C19.4406 19.279 19.0739 18.9225 18.634 18.6795H19.924C20.4833 18.6792 21.0197 18.4569 21.4152 18.0613C21.8107 17.6658 22.0331 17.1295 22.0334 16.5701C22.0333 16.2931 21.9787 16.0187 21.8726 15.7628C21.7666 15.5068 21.6111 15.2743 21.4152 15.0784C21.2192 14.8825 20.9866 14.7272 20.7306 14.6212C20.4746 14.5152 20.2003 14.4607 19.9232 14.4608H19.6619L20.5611 8.8695C20.8116 7.39275 21.3516 4.20262 21.4784 3.40912C21.5421 3.00825 21.604 2.72662 21.8436 2.56875V2.859H22.8985C22.9915 2.8587 23.0807 2.82164 23.1465 2.75589C23.2123 2.69014 23.2495 2.60103 23.2499 2.508V1.10175C23.2497 1.00859 23.2126 0.919288 23.1467 0.853376C23.0809 0.787464 22.9916 0.750297 22.8985 0.75ZM4.61723 22.1955C4.33755 22.1952 4.06942 22.084 3.87165 21.8862C3.67389 21.6884 3.56266 21.4203 3.56236 21.1406H5.67173C5.67144 21.4202 5.56025 21.6883 5.36257 21.8861C5.16489 22.0838 4.89685 22.1951 4.61723 22.1955ZM17.2735 22.1955C16.9937 22.1953 16.7255 22.0841 16.5277 21.8863C16.3298 21.6886 16.2185 21.4204 16.2182 21.1406H18.3284C18.3279 21.4202 18.2166 21.6883 18.0188 21.886C17.8211 22.0837 17.5531 22.195 17.2735 22.1955ZM16.4084 6.37275C16.4207 6.27744 16.4669 6.18974 16.5385 6.1256C16.6101 6.06146 16.7023 6.02514 16.7984 6.02325H19.0247C19.2182 6.02325 19.3529 6.17925 19.3225 6.37088L19.102 7.785C19.0727 7.97625 18.8894 8.13263 18.6955 8.13263H16.5719C16.5271 8.13381 16.4827 8.12529 16.4416 8.10766C16.4005 8.09003 16.3637 8.06371 16.3337 8.0305C16.3037 7.99728 16.2813 7.95797 16.268 7.91527C16.2546 7.87257 16.2507 7.82749 16.2565 7.78312L16.4084 6.37275ZM16.03 9.88837C16.0426 9.79316 16.0888 9.70559 16.1603 9.6415C16.2319 9.5774 16.324 9.541 16.42 9.53888H18.4761C18.67 9.53888 18.8042 9.69488 18.775 9.8865L18.6089 10.9493C18.5792 11.1405 18.3962 11.2969 18.2024 11.2969H16.231C16.1863 11.2979 16.1419 11.2893 16.1009 11.2717C16.0598 11.254 16.0231 11.2277 15.9931 11.1945C15.9632 11.1613 15.9407 11.122 15.9274 11.0794C15.914 11.0367 15.91 10.9917 15.9156 10.9474L16.03 9.88837ZM2.57461 7.79138L2.21836 6.3645C2.17186 6.17625 2.29261 6.02325 2.48648 6.02325H5.13361C5.32786 6.02325 5.50298 6.18037 5.52361 6.37275L5.67511 7.7835C5.68073 7.82781 5.67673 7.87281 5.66337 7.91542C5.65002 7.95804 5.62762 7.99728 5.59772 8.03046C5.56782 8.06363 5.53112 8.08997 5.49011 8.10766C5.4491 8.12536 5.40476 8.134 5.36011 8.133H3.01223C2.81873 8.133 2.62148 7.97888 2.57461 7.79138ZM3.80123 11.2969C3.60773 11.2969 3.41048 11.1431 3.36398 10.9556L3.09548 9.8805C3.04861 9.69225 3.16861 9.53925 3.36248 9.53925H5.51086C5.70473 9.53925 5.88023 9.69637 5.90086 9.88875L6.01486 10.9478C6.02055 10.9921 6.01659 11.0371 6.00326 11.0797C5.98992 11.1224 5.96754 11.1616 5.93762 11.1948C5.90771 11.228 5.87097 11.2544 5.82994 11.272C5.7889 11.2897 5.74453 11.2983 5.69986 11.2972L3.80123 11.2969ZM6.03961 14.4611H4.59023C4.39561 14.4611 4.19948 14.3074 4.15261 14.1199L3.88411 13.0448C3.83761 12.8565 3.95761 12.7035 4.15186 12.7035H5.85061C6.04448 12.7035 6.21998 12.8606 6.24136 13.053L6.35461 14.112C6.3603 14.1563 6.35634 14.2013 6.34301 14.2439C6.32968 14.2866 6.30728 14.3258 6.27736 14.359C6.24744 14.3921 6.2107 14.4184 6.16966 14.4361C6.12863 14.4537 6.08426 14.4622 6.03961 14.4611ZM10.3491 14.1094C10.3487 14.2027 10.3114 14.292 10.2454 14.3579C10.1793 14.4238 10.0899 14.4609 9.99661 14.4611H8.16248C8.06646 14.4591 7.97433 14.4228 7.90284 14.3587C7.83135 14.2945 7.78523 14.2069 7.77286 14.1116L7.65886 13.0526C7.65305 13.0083 7.65691 12.9633 7.67017 12.9206C7.68343 12.8779 7.70578 12.8386 7.73568 12.8054C7.76558 12.7722 7.80231 12.7459 7.84337 12.7282C7.88442 12.7105 7.92881 12.702 7.97348 12.7031H9.99661C10.09 12.7031 10.1795 12.7402 10.2456 12.8061C10.3117 12.872 10.3489 12.9615 10.3491 13.0549V14.1094ZM10.3491 10.9455C10.3487 11.0388 10.3114 11.1281 10.2454 11.1941C10.1793 11.26 10.0899 11.2971 9.99661 11.2972H7.82236C7.62886 11.2972 7.45411 11.1401 7.43236 10.9478L7.31911 9.88875C7.31336 9.84445 7.31727 9.79944 7.33055 9.75679C7.34384 9.71414 7.36619 9.67487 7.39608 9.64167C7.42596 9.60847 7.46267 9.58213 7.5037 9.56445C7.54472 9.54677 7.58908 9.53818 7.63373 9.53925H9.99661C10.09 9.53925 10.1795 9.57628 10.2456 9.64223C10.3117 9.70817 10.3489 9.79764 10.3491 9.891V10.9455ZM10.3491 7.78125C10.3487 7.87455 10.3114 7.9639 10.2454 8.0298C10.1793 8.0957 10.0899 8.1328 9.99661 8.133H7.48336C7.38727 8.13111 7.29505 8.09479 7.22348 8.03065C7.15191 7.96651 7.10574 7.87881 7.09336 7.7835L6.94186 6.37275C6.93617 6.32843 6.94013 6.28341 6.95346 6.24076C6.96679 6.19811 6.98918 6.15885 7.0191 6.12566C7.04901 6.09247 7.08574 6.06613 7.12678 6.04846C7.16782 6.03078 7.21219 6.02218 7.25686 6.02325H9.99698C10.0903 6.02325 10.1799 6.06029 10.246 6.12623C10.3121 6.19217 10.3493 6.28164 10.3495 6.375L10.3491 7.78125ZM14.1587 14.1116C14.1463 14.2069 14.1001 14.2946 14.0285 14.3587C13.957 14.4228 13.8648 14.4592 13.7687 14.4611H12.1112C12.018 14.4609 11.9286 14.4238 11.8626 14.3579C11.7966 14.292 11.7594 14.2026 11.7591 14.1094V13.0545C11.7593 12.9612 11.7965 12.8718 11.8625 12.8059C11.9285 12.7399 12.0179 12.7028 12.1112 12.7028H13.9577C14.1512 12.7028 14.2937 12.8599 14.2727 13.0522L14.1587 14.1116ZM14.4985 10.9474C14.486 11.0427 14.4398 11.1303 14.3683 11.1944C14.2967 11.2586 14.2045 11.2949 14.1085 11.2969H12.1112C12.018 11.2967 11.9286 11.2596 11.8626 11.1937C11.7966 11.1277 11.7594 11.0384 11.7591 10.9451V9.89025C11.7593 9.79696 11.7965 9.70755 11.8625 9.64161C11.9285 9.57568 12.0179 9.5386 12.1112 9.5385H14.2975C14.4914 9.5385 14.6335 9.69563 14.6121 9.888L14.4985 10.9474ZM14.8382 7.7835C14.8258 7.87878 14.7796 7.96643 14.708 8.03056C14.6365 8.09468 14.5443 8.13103 14.4482 8.133H12.1112C12.018 8.1328 11.9286 8.09569 11.8626 8.02978C11.7966 7.96387 11.7594 7.87451 11.7591 7.78125V6.375C11.7593 6.28171 11.7965 6.1923 11.8625 6.12636C11.9285 6.06043 12.0179 6.02335 12.1112 6.02325H14.6751C14.869 6.02325 15.0111 6.18037 14.9905 6.37275L14.8382 7.7835ZM17.5502 14.4611V14.4585L17.5472 14.4611H15.8912C15.8804 14.4611 15.871 14.4559 15.8601 14.4544C15.8582 14.4416 15.8582 14.4289 15.856 14.4154L15.8395 14.4499C15.8441 14.4511 15.8487 14.4521 15.8534 14.4529C15.6805 14.433 15.5567 14.2901 15.5766 14.1116L15.6899 13.0526C15.7025 12.9574 15.7487 12.8698 15.8202 12.8057C15.8917 12.7416 15.9838 12.7052 16.0799 12.7031H17.9834C18.1772 12.7031 18.3107 12.8591 18.2815 13.0507L18.1154 14.1135C18.0865 14.3048 17.9035 14.4611 17.7096 14.4611H17.5502Z" fill="#FF9F0A"/>
</svg>
