<svg width="24" height="22" viewBox="0 0 24 22" fill="none" xmlns="http://www.w3.org/2000/svg">
<path d="M11.8975 11.8623C11.5433 11.8678 11.1808 11.8236 10.8101 11.7295C10.4448 11.6354 10.0409 11.4888 9.59814 11.2896L1.43018 7.5542C1.15902 7.43245 0.954264 7.2609 0.815918 7.03955C0.683105 6.81266 0.616699 6.57471 0.616699 6.32568C0.616699 6.08219 0.683105 5.84977 0.815918 5.62842C0.954264 5.40153 1.15902 5.22721 1.43018 5.10547L9.59814 1.37012C10.0409 1.1709 10.4448 1.02425 10.8101 0.930176C11.1808 0.8361 11.5433 0.791829 11.8975 0.797363C12.2516 0.791829 12.6113 0.8361 12.9766 0.930176C13.3473 1.02425 13.7541 1.1709 14.1968 1.37012L22.373 5.10547C22.6442 5.22721 22.8462 5.40153 22.979 5.62842C23.1174 5.84977 23.1865 6.08219 23.1865 6.32568C23.1865 6.57471 23.1174 6.81266 22.979 7.03955C22.8462 7.2609 22.6442 7.43245 22.373 7.5542L14.1968 11.2896C13.7541 11.4888 13.3473 11.6354 12.9766 11.7295C12.6113 11.8236 12.2516 11.8678 11.8975 11.8623ZM11.8975 10.5508C12.1742 10.5508 12.4536 10.5148 12.7358 10.4429C13.0236 10.3654 13.3446 10.2464 13.6987 10.0859L21.3438 6.60791C21.4876 6.5415 21.5596 6.44743 21.5596 6.32568C21.5596 6.20947 21.4876 6.11816 21.3438 6.05176L13.6987 2.57373C13.3446 2.41325 13.0236 2.29704 12.7358 2.2251C12.4536 2.14762 12.1742 2.10889 11.8975 2.10889C11.6208 2.10889 11.3413 2.14762 11.0591 2.2251C10.7769 2.29704 10.4587 2.41325 10.1045 2.57373L2.45947 6.05176C2.31559 6.11816 2.24365 6.20947 2.24365 6.32568C2.24365 6.44743 2.31559 6.5415 2.45947 6.60791L10.1045 10.0859C10.4587 10.2464 10.7769 10.3654 11.0591 10.4429C11.3413 10.5148 11.6208 10.5508 11.8975 10.5508ZM3.854 12.5679V8.18506H5.19043V12.5679C5.19043 12.9995 5.34538 13.4146 5.65527 13.813C5.9707 14.2114 6.42171 14.5684 7.0083 14.8838C7.59489 15.1937 8.30046 15.4399 9.125 15.6226C9.95508 15.8052 10.8792 15.8965 11.8975 15.8965C12.9212 15.8965 13.8454 15.8052 14.6699 15.6226C15.4945 15.4399 16.2 15.1937 16.7866 14.8838C17.3732 14.5684 17.8242 14.2114 18.1396 13.813C18.4551 13.4146 18.6128 12.9995 18.6128 12.5679V8.18506H19.9492V12.5679C19.9492 13.1877 19.7583 13.7743 19.3765 14.3276C19.0002 14.881 18.4606 15.368 17.7578 15.7886C17.055 16.2147 16.2083 16.5467 15.2178 16.7847C14.2272 17.0282 13.1204 17.1499 11.8975 17.1499C10.6745 17.1499 9.56771 17.0282 8.57715 16.7847C7.59212 16.5467 6.74544 16.2147 6.03711 15.7886C5.33431 15.368 4.79476 14.881 4.41846 14.3276C4.04215 13.7743 3.854 13.1877 3.854 12.5679ZM6.88379 9.46338L5.80469 8.89062L11.3496 6.00195L11.8062 6.85693L6.88379 9.46338ZM11.9307 7.27197C11.6374 7.27197 11.3551 7.23047 11.084 7.14746C10.8128 7.06445 10.5915 6.95378 10.4199 6.81543C10.2484 6.67155 10.1626 6.5083 10.1626 6.32568C10.1626 6.1486 10.2484 5.99089 10.4199 5.85254C10.5915 5.71419 10.8128 5.60628 11.084 5.52881C11.3551 5.4458 11.6374 5.4043 11.9307 5.4043C12.2295 5.4043 12.5117 5.4458 12.7773 5.52881C13.0485 5.60628 13.2671 5.71419 13.4331 5.85254C13.6047 5.99089 13.6904 6.1486 13.6904 6.32568C13.6904 6.5083 13.6047 6.67155 13.4331 6.81543C13.2671 6.95378 13.0485 7.06445 12.7773 7.14746C12.5117 7.23047 12.2295 7.27197 11.9307 7.27197ZM5.80469 17.6064V8.93213L6.88379 9.46338V17.6064H5.80469ZM5.14893 17.7725C5.14893 17.446 5.24577 17.1831 5.43945 16.9839C5.63867 16.7902 5.90153 16.6934 6.22803 16.6934H6.45215C6.77865 16.6934 7.03874 16.7902 7.23242 16.9839C7.43164 17.1831 7.53125 17.446 7.53125 17.7725V19.9556C7.53125 20.2821 7.43164 20.5422 7.23242 20.7358C7.03874 20.9351 6.77865 21.0347 6.45215 21.0347H6.22803C5.90153 21.0347 5.63867 20.9351 5.43945 20.7358C5.24577 20.5422 5.14893 20.2821 5.14893 19.9556V17.7725Z" fill="#FF9F0A"/>
</svg>
