<svg width="25" height="16" viewBox="0 0 25 16" fill="none" xmlns="http://www.w3.org/2000/svg">
<path d="M0.616699 12.3315C0.616699 11.9165 0.66097 11.471 0.749512 10.9951C0.843587 10.5192 0.970866 10.0129 1.13135 9.47607C1.29736 8.90609 1.50212 8.2863 1.74561 7.6167C1.9891 6.9471 2.24919 6.27197 2.52588 5.59131C2.80811 4.90511 3.09033 4.26318 3.37256 3.66553C3.61051 3.16748 3.83464 2.75244 4.04492 2.42041C4.25521 2.08838 4.52083 1.81722 4.8418 1.60693C5.16829 1.39665 5.62484 1.2251 6.21143 1.09229C6.9917 0.915202 7.91862 0.771322 8.99219 0.660645C10.0713 0.549967 11.2749 0.494629 12.603 0.494629C13.9312 0.494629 15.132 0.549967 16.2056 0.660645C17.2791 0.771322 18.2061 0.915202 18.9863 1.09229C19.5729 1.2251 20.0267 1.39665 20.3477 1.60693C20.6742 1.81722 20.9425 2.08838 21.1528 2.42041C21.3631 2.75244 21.5872 3.16748 21.8252 3.66553C22.1074 4.26318 22.3869 4.90511 22.6636 5.59131C22.9458 6.27197 23.2087 6.9471 23.4521 7.6167C23.6956 8.2863 23.9004 8.90609 24.0664 9.47607C24.2269 10.0129 24.3514 10.5192 24.4399 10.9951C24.534 11.471 24.5811 11.9165 24.5811 12.3315C24.5811 12.979 24.4482 13.5435 24.1826 14.0249C23.9225 14.5063 23.5545 14.8771 23.0786 15.1372C22.6027 15.4028 22.0493 15.5356 21.4185 15.5356C20.937 15.5356 20.4666 15.4305 20.0073 15.2202C19.5535 15.0099 19.1523 14.689 18.8037 14.2573L17.3013 12.4395C17.1906 12.3066 17.0744 12.2098 16.9526 12.1489C16.8309 12.0881 16.7091 12.0576 16.5874 12.0576H8.61035C8.48861 12.0576 8.36686 12.0881 8.24512 12.1489C8.12337 12.2098 8.00716 12.3066 7.89648 12.4395L6.39404 14.2573C6.04541 14.689 5.64144 15.0099 5.18213 15.2202C4.72835 15.4305 4.26074 15.5356 3.7793 15.5356C3.14844 15.5356 2.59505 15.4028 2.11914 15.1372C1.64323 14.8771 1.27246 14.5063 1.00684 14.0249C0.746745 13.5435 0.616699 12.979 0.616699 12.3315ZM1.88672 12.3813C1.88672 12.9569 2.0638 13.4134 2.41797 13.751C2.77767 14.083 3.22591 14.249 3.7627 14.249C4.07812 14.249 4.38249 14.1688 4.67578 14.0083C4.97461 13.8478 5.24577 13.6209 5.48926 13.3276L7.0498 11.4434C7.24902 11.1999 7.45378 11.02 7.66406 10.9038C7.87435 10.7821 8.17041 10.7212 8.55225 10.7212H16.6455C17.0273 10.7212 17.3234 10.7821 17.5337 10.9038C17.744 11.02 17.9487 11.1999 18.1479 11.4434L19.7085 13.3276C20.2176 13.9419 20.7931 14.249 21.4351 14.249C21.9718 14.249 22.4173 14.083 22.7715 13.751C23.1312 13.4134 23.311 12.9569 23.311 12.3813C23.311 12.1213 23.2806 11.8252 23.2197 11.4932C23.1589 11.1611 23.062 10.771 22.9292 10.3228C22.7355 9.68636 22.5086 9.0057 22.2485 8.28076C21.994 7.55029 21.7228 6.82536 21.4351 6.10596C21.1473 5.38656 20.8595 4.71973 20.5718 4.10547C20.4334 3.81217 20.3006 3.55485 20.1733 3.3335C20.0516 3.11214 19.8911 2.92676 19.6919 2.77734C19.4982 2.62793 19.2215 2.51172 18.8618 2.42871C18.1092 2.25163 17.2044 2.10775 16.1475 1.99707C15.0905 1.88639 13.909 1.83105 12.603 1.83105C11.2915 1.83105 10.1073 1.88639 9.05029 1.99707C7.99333 2.10775 7.08854 2.25163 6.33594 2.42871C5.97624 2.51172 5.69678 2.62793 5.49756 2.77734C5.29834 2.92676 5.13509 3.11214 5.00781 3.3335C4.88607 3.55485 4.75879 3.81217 4.62598 4.10547C4.34928 4.71973 4.06429 5.38656 3.771 6.10596C3.4777 6.82536 3.20101 7.55029 2.94092 8.28076C2.68083 9.0057 2.45671 9.68636 2.26855 10.3228C2.13574 10.771 2.0389 11.1611 1.97803 11.4932C1.91715 11.8252 1.88672 12.1213 1.88672 12.3813ZM5.87939 6.34668C5.87939 6.14193 5.94027 5.97868 6.06201 5.85693C6.18376 5.73519 6.35254 5.67432 6.56836 5.67432H8.0625V4.22168C8.0625 4.01139 8.12061 3.84538 8.23682 3.72363C8.35303 3.60189 8.51351 3.54102 8.71826 3.54102C8.92301 3.54102 9.0835 3.60189 9.19971 3.72363C9.31592 3.84538 9.37402 4.01139 9.37402 4.22168V5.67432H10.7769C11.0093 5.67432 11.1891 5.73519 11.3164 5.85693C11.4492 5.97868 11.5156 6.14193 11.5156 6.34668C11.5156 6.5625 11.4492 6.73405 11.3164 6.86133C11.1891 6.98307 11.0093 7.04395 10.7769 7.04395H9.37402V8.49658C9.37402 8.70687 9.31592 8.87565 9.19971 9.00293C9.0835 9.12467 8.92301 9.18555 8.71826 9.18555C8.51351 9.18555 8.35303 9.12467 8.23682 9.00293C8.12061 8.87565 8.0625 8.70687 8.0625 8.49658V7.04395H6.56836C6.35254 7.04395 6.18376 6.98307 6.06201 6.86133C5.94027 6.73405 5.87939 6.5625 5.87939 6.34668ZM17.7578 6.23877C17.4258 6.23877 17.1436 6.12533 16.9111 5.89844C16.6787 5.67155 16.5625 5.38932 16.5625 5.05176C16.5625 4.71419 16.6787 4.4292 16.9111 4.19678C17.1436 3.96436 17.4258 3.84814 17.7578 3.84814C18.0954 3.84814 18.3776 3.96436 18.6045 4.19678C18.8369 4.4292 18.9531 4.71419 18.9531 5.05176C18.9531 5.38932 18.8369 5.67155 18.6045 5.89844C18.3776 6.12533 18.0954 6.23877 17.7578 6.23877ZM15.3174 8.7041C14.9854 8.7041 14.7031 8.59066 14.4707 8.36377C14.2383 8.13135 14.1221 7.84635 14.1221 7.50879C14.1221 7.17122 14.2383 6.88623 14.4707 6.65381C14.7031 6.42139 14.9854 6.30518 15.3174 6.30518C15.6549 6.30518 15.9372 6.42139 16.1641 6.65381C16.3965 6.88623 16.5127 7.17122 16.5127 7.50879C16.5127 7.84635 16.3965 8.13135 16.1641 8.36377C15.9372 8.59066 15.6549 8.7041 15.3174 8.7041Z" fill="#FF9F0A"/>
</svg>
