<svg width="20" height="16" viewBox="0 0 20 16" fill="none" xmlns="http://www.w3.org/2000/svg">
<path d="M3.84375 12.1987C3.60026 12.1987 3.40381 12.124 3.25439 11.9746C3.10498 11.8252 3.03027 11.6343 3.03027 11.4019V9.86621C3.03027 9.62826 3.10498 9.43734 3.25439 9.29346C3.40381 9.14404 3.60026 9.06934 3.84375 9.06934H5.87744C6.12093 9.06934 6.31738 9.14404 6.4668 9.29346C6.61621 9.43734 6.69092 9.62826 6.69092 9.86621V11.4019C6.69092 11.6343 6.61621 11.8252 6.4668 11.9746C6.31738 12.124 6.12093 12.1987 5.87744 12.1987H3.84375ZM0.789062 6.11426V4.22998H18.9595V6.11426H0.789062ZM2.72314 15.104C1.85433 15.104 1.20133 14.8882 0.76416 14.4565C0.33252 14.0304 0.116699 13.3913 0.116699 12.5391V3.49951C0.116699 2.64176 0.33252 1.99984 0.76416 1.57373C1.20133 1.14209 1.85433 0.92627 2.72314 0.92627H17.0171C17.8859 0.92627 18.5361 1.14209 18.9678 1.57373C19.4049 2.00537 19.6235 2.6473 19.6235 3.49951V12.5391C19.6235 13.3913 19.4049 14.0304 18.9678 14.4565C18.5361 14.8882 17.8859 15.104 17.0171 15.104H2.72314ZM2.73975 13.7676H17.0005C17.41 13.7676 17.7254 13.6597 17.9468 13.4438C18.1737 13.2225 18.2871 12.896 18.2871 12.4644V3.57422C18.2871 3.14258 18.1737 2.81608 17.9468 2.59473C17.7254 2.37337 17.41 2.2627 17.0005 2.2627H2.73975C2.32471 2.2627 2.00651 2.37337 1.78516 2.59473C1.5638 2.81608 1.45312 3.14258 1.45312 3.57422V12.4644C1.45312 12.896 1.5638 13.2225 1.78516 13.4438C2.00651 13.6597 2.32471 13.7676 2.73975 13.7676Z" fill="#FF9F0A"/>
</svg>
