<svg width="21" height="21" viewBox="0 0 21 21" fill="none" xmlns="http://www.w3.org/2000/svg">
<path d="M0.865723 11.8047V8.79883C0.865723 7.92676 1.07601 7.27734 1.49658 6.85059C1.92334 6.41764 2.56657 6.20117 3.42627 6.20117H6.71973V2.89844C6.71973 2.03874 6.93311 1.3986 7.35986 0.978027C7.79281 0.55127 8.44531 0.337891 9.31738 0.337891H12.3232C13.1953 0.337891 13.8447 0.55127 14.2715 0.978027C14.7044 1.3986 14.9209 2.03874 14.9209 2.89844V6.20117H18.2144C19.0741 6.20117 19.7142 6.41764 20.1348 6.85059C20.5615 7.27734 20.7749 7.92676 20.7749 8.79883V11.8047C20.7749 12.6768 20.5615 13.3293 20.1348 13.7622C19.7142 14.189 19.0741 14.4023 18.2144 14.4023H14.9209V17.6958C14.9209 18.5555 14.7044 19.1956 14.2715 19.6162C13.8447 20.043 13.1953 20.2563 12.3232 20.2563H9.31738C8.44531 20.2563 7.79281 20.043 7.35986 19.6162C6.93311 19.1956 6.71973 18.5555 6.71973 17.6958V14.4023H3.42627C2.56657 14.4023 1.92334 14.189 1.49658 13.7622C1.07601 13.3293 0.865723 12.6768 0.865723 11.8047ZM2.35938 11.7769C2.35938 12.1541 2.45524 12.4386 2.64697 12.6304C2.8387 12.8159 3.1263 12.9087 3.50977 12.9087H8.21338V17.6216C8.21338 17.9989 8.30615 18.2834 8.4917 18.4751C8.68343 18.6668 8.96794 18.7627 9.34521 18.7627H12.2954C12.6727 18.7627 12.9541 18.6668 13.1396 18.4751C13.3314 18.2834 13.4272 17.9989 13.4272 17.6216V12.9087H18.1309C18.5143 12.9087 18.8019 12.8159 18.9937 12.6304C19.1854 12.4386 19.2812 12.1541 19.2812 11.7769V8.82666C19.2812 8.44938 19.1854 8.16797 18.9937 7.98242C18.8019 7.79069 18.5143 7.69482 18.1309 7.69482H13.4272V2.98193C13.4272 2.59847 13.3314 2.31087 13.1396 2.11914C12.9541 1.92741 12.6727 1.83154 12.2954 1.83154H9.34521C8.96794 1.83154 8.68343 1.92741 8.4917 2.11914C8.30615 2.31087 8.21338 2.59847 8.21338 2.98193V7.69482H3.50977C3.1263 7.69482 2.8387 7.79069 2.64697 7.98242C2.45524 8.16797 2.35938 8.44938 2.35938 8.82666V11.7769Z" fill="#FF9F0A"/>
</svg>
