<svg width="116" height="116" viewBox="0 0 116 116" fill="none" xmlns="http://www.w3.org/2000/svg">
<path opacity="0.4" d="M57.9993 106.382C84.6931 106.382 106.333 84.7419 106.333 58.0482C106.333 31.3544 84.6931 9.71484 57.9993 9.71484C31.3056 9.71484 9.66602 31.3544 9.66602 58.0482C9.66602 84.7419 31.3056 106.382 57.9993 106.382Z" fill="#FF9F0A"/>
<path d="M58 33.5437C47.995 33.5437 39.875 41.6637 39.875 51.6687C39.875 61.4804 47.56 69.4554 57.7583 69.7454C57.9033 69.7454 58.0967 69.7454 58.1933 69.7454C58.29 69.7454 58.435 69.7454 58.5317 69.7454C58.58 69.7454 58.6283 69.7454 58.6283 69.7454C68.3917 69.407 76.0767 61.4804 76.125 51.6687C76.125 41.6637 68.005 33.5437 58 33.5437Z" fill="#FF9F0A"/>
<path d="M90.7707 93.5735C82.1674 101.5 70.664 106.382 58.0007 106.382C45.3374 106.382 33.834 101.5 25.2307 93.5735C26.3907 89.1752 29.5324 85.1635 34.124 82.0702C47.319 73.2735 68.7791 73.2735 81.8774 82.0702C86.5174 85.1635 89.6107 89.1752 90.7707 93.5735Z" fill="#FF9F0A"/>
</svg>
