<svg width="24" height="24" viewBox="0 0 24 24" fill="none" xmlns="http://www.w3.org/2000/svg">
<path d="M16.9999 10.8051C16.9999 10.4591 16.9999 10.2861 17.0519 10.1321C17.2029 9.68412 17.6019 9.51112 18.0019 9.32912C18.4499 9.12412 18.6739 9.02212 18.8969 9.00412C19.1489 8.98412 19.4019 9.03812 19.6179 9.15912C19.9039 9.31912 20.1039 9.62512 20.3079 9.87312C21.2509 11.0191 21.7229 11.5921 21.8949 12.2231C22.0349 12.7331 22.0349 13.2671 21.8949 13.7761C21.6439 14.6981 20.8489 15.4701 20.2599 16.1861C19.9589 16.5511 19.8079 16.7341 19.6179 16.8411C19.3982 16.963 19.1473 17.0169 18.8969 16.9961C18.6739 16.9781 18.4499 16.8761 18.0009 16.6711C17.6009 16.4891 17.2029 16.3161 17.0519 15.8681C16.9999 15.7141 16.9999 15.5411 16.9999 15.1951V10.8051ZM6.99991 10.8051C6.99991 10.3691 6.98791 9.97812 6.63591 9.67212C6.50791 9.56112 6.33791 9.48412 5.99891 9.32912C5.54991 9.12512 5.32591 9.02212 5.10291 9.00412C4.43591 8.95012 4.07691 9.40612 3.69291 9.87412C2.74891 11.0191 2.27691 11.5921 2.10391 12.2241C1.96471 12.7324 1.96471 13.2688 2.10391 13.7771C2.35591 14.6981 3.15191 15.4711 3.73991 16.1861C4.11091 16.6361 4.46591 17.0471 5.10291 16.9961C5.32591 16.9781 5.54991 16.8761 5.99891 16.6711C6.33891 16.5171 6.50791 16.4391 6.63591 16.3281C6.98791 16.0221 6.99991 15.6311 6.99991 15.1961V10.8051Z" stroke="#FF9F0A" stroke-width="1.5" stroke-linecap="round" stroke-linejoin="round"/>
<path d="M5 9C5 5.686 8.134 3 12 3C15.866 3 19 5.686 19 9M19 17V17.8C19 19.567 17.21 21 15 21H13" stroke="#FF9F0A" stroke-width="1.5" stroke-linecap="round" stroke-linejoin="round"/>
</svg>
