<svg width="19" height="18" viewBox="0 0 19 18" fill="none" xmlns="http://www.w3.org/2000/svg">
<path d="M2.92236 17.9053C3.24886 17.7282 3.47298 17.5041 3.59473 17.2329C3.71647 16.9673 3.77734 16.6104 3.77734 16.1621V2.68164C3.77734 1.82389 3.99316 1.18197 4.4248 0.755859C4.86198 0.324219 5.51497 0.108398 6.38379 0.108398H16.3945C17.2633 0.108398 17.9136 0.324219 18.3452 0.755859C18.7824 1.18197 19.001 1.82389 19.001 2.68164V15.3403C19.001 16.1925 18.7824 16.8317 18.3452 17.2578C17.9136 17.6895 17.2633 17.9053 16.3945 17.9053H2.92236ZM7.5542 13.9375H9.62939C9.93376 13.9375 10.1717 13.8517 10.3433 13.6802C10.5148 13.5086 10.6006 13.2707 10.6006 12.9663V10.8662C10.6006 10.5618 10.5148 10.3239 10.3433 10.1523C10.1717 9.97526 9.93376 9.88672 9.62939 9.88672H7.5542C7.2443 9.88672 7.00358 9.97526 6.83203 10.1523C6.66048 10.3239 6.57471 10.5618 6.57471 10.8662V12.9663C6.57471 13.2707 6.66048 13.5086 6.83203 13.6802C7.00358 13.8517 7.2443 13.9375 7.5542 13.9375ZM7.10596 5.05566H15.689C15.8328 5.05566 15.9546 5.00586 16.0542 4.90625C16.1538 4.80111 16.2036 4.6766 16.2036 4.53271C16.2036 4.39437 16.1538 4.27816 16.0542 4.18408C15.9546 4.08447 15.8328 4.03467 15.689 4.03467H7.10596C6.95654 4.03467 6.83203 4.08447 6.73242 4.18408C6.63281 4.27816 6.58301 4.39437 6.58301 4.53271C6.58301 4.6766 6.63281 4.80111 6.73242 4.90625C6.83203 5.00586 6.95654 5.05566 7.10596 5.05566ZM7.10596 7.97754H15.689C15.8328 7.97754 15.9546 7.9305 16.0542 7.83643C16.1538 7.73682 16.2036 7.61507 16.2036 7.47119C16.2036 7.32731 16.1538 7.20557 16.0542 7.10596C15.9546 7.00635 15.8328 6.95654 15.689 6.95654H7.10596C6.95654 6.95654 6.83203 7.00635 6.73242 7.10596C6.63281 7.20557 6.58301 7.32731 6.58301 7.47119C6.58301 7.61507 6.63281 7.73682 6.73242 7.83643C6.83203 7.9305 6.95654 7.97754 7.10596 7.97754ZM12.2524 10.9077H15.689C15.8328 10.9077 15.9518 10.8607 16.0459 10.7666C16.1455 10.667 16.1953 10.548 16.1953 10.4097C16.1953 10.2603 16.1455 10.1357 16.0459 10.0361C15.9518 9.93652 15.8328 9.88672 15.689 9.88672H12.2524C12.103 9.88672 11.9785 9.93652 11.8789 10.0361C11.7848 10.1357 11.7378 10.2603 11.7378 10.4097C11.7378 10.548 11.7848 10.667 11.8789 10.7666C11.9785 10.8607 12.103 10.9077 12.2524 10.9077ZM12.2524 13.896H15.689C15.8328 13.896 15.9518 13.849 16.0459 13.7549C16.1455 13.6553 16.1953 13.5363 16.1953 13.3979C16.1953 13.2485 16.1455 13.124 16.0459 13.0244C15.9518 12.9248 15.8328 12.875 15.689 12.875H12.2524C12.103 12.875 11.9785 12.9248 11.8789 13.0244C11.7848 13.124 11.7378 13.2485 11.7378 13.3979C11.7378 13.5363 11.7848 13.6553 11.8789 13.7549C11.9785 13.849 12.103 13.896 12.2524 13.896ZM0.116699 8.20166C0.116699 7.87516 0.183105 7.5957 0.315918 7.36328C0.44873 7.12533 0.636882 6.94548 0.880371 6.82373C1.12386 6.70199 1.41439 6.64111 1.75195 6.64111H2.15869V15.6143C2.15869 15.8135 2.11442 15.9878 2.02588 16.1372C1.93734 16.2866 1.81559 16.4001 1.66064 16.4775C1.5057 16.5605 1.33138 16.6048 1.1377 16.6104C0.94401 16.6104 0.769694 16.5688 0.614746 16.4858C0.459798 16.4028 0.338053 16.2866 0.249512 16.1372C0.16097 15.9878 0.116699 15.8135 0.116699 15.6143V8.20166Z" fill="#8E8E93"/>
</svg>
