<svg width="23" height="24" viewBox="0 0 23 24" fill="none" xmlns="http://www.w3.org/2000/svg">
<path d="M11.4653 13.812C10.7466 13.8045 10.0952 13.6174 9.51123 13.2505C8.93473 12.8761 8.47428 12.3708 8.12988 11.7344C7.79297 11.098 7.62077 10.3792 7.61328 9.57812C7.60579 8.82194 7.77425 8.12939 8.11865 7.50049C8.46305 6.87158 8.92725 6.36995 9.51123 5.99561C10.0952 5.61377 10.7466 5.42285 11.4653 5.42285C12.1841 5.42285 12.8317 5.61377 13.4082 5.99561C13.9922 6.36995 14.4564 6.87158 14.8008 7.50049C15.1452 8.12939 15.3174 8.82194 15.3174 9.57812C15.3174 10.3792 15.1452 11.1017 14.8008 11.7456C14.4639 12.3895 14.0034 12.8986 13.4194 13.2729C12.8354 13.6398 12.1841 13.8195 11.4653 13.812ZM19.147 19.3037C18.4657 19.9701 17.6646 20.5391 16.7437 21.0107C15.8302 21.4824 14.9056 21.8418 13.9697 22.0889C13.0339 22.3434 12.1991 22.4707 11.4653 22.4707C10.7391 22.4707 9.9043 22.3434 8.96094 22.0889C8.02507 21.8418 7.09668 21.4824 6.17578 21.0107C5.25488 20.5391 4.45752 19.9701 3.78369 19.3037L3.81738 19.1689C4.00456 18.6224 4.44255 18.0833 5.13135 17.5518C5.82015 17.0202 6.70361 16.5822 7.78174 16.2378C8.86735 15.8934 10.0952 15.7212 11.4653 15.7212C12.8429 15.7212 14.0708 15.8934 15.1489 16.2378C16.2345 16.5822 17.118 17.0202 17.7993 17.5518C18.4881 18.0833 18.9261 18.6261 19.1133 19.1802L19.147 19.3037ZM11.4653 23.3467C9.90055 23.3467 8.42562 23.0472 7.04053 22.4482C5.66292 21.8493 4.44629 21.022 3.39062 19.9663C2.33496 18.9106 1.50765 17.694 0.908691 16.3164C0.309733 14.9313 0.0102539 13.4564 0.0102539 11.8916C0.0102539 10.3268 0.309733 8.85563 0.908691 7.47803C1.50765 6.09294 2.33122 4.87256 3.37939 3.81689C4.43506 2.76123 5.65169 1.93392 7.0293 1.33496C8.41439 0.736003 9.88932 0.436523 11.4541 0.436523C13.0189 0.436523 14.4938 0.736003 15.8789 1.33496C17.264 1.93392 18.4844 2.76123 19.54 3.81689C20.5957 4.87256 21.423 6.09294 22.022 7.47803C22.6209 8.85563 22.9204 10.3268 22.9204 11.8916C22.9204 13.4564 22.6209 14.9313 22.022 16.3164C21.423 17.694 20.5957 18.9106 19.54 19.9663C18.4844 21.022 17.264 21.8493 15.8789 22.4482C14.5013 23.0472 13.0301 23.3467 11.4653 23.3467ZM11.4653 21.4375C12.7905 21.4375 14.0296 21.1904 15.1826 20.6963C16.3431 20.2021 17.3576 19.5208 18.2261 18.6523C19.1021 17.7764 19.7834 16.7619 20.27 15.6089C20.7642 14.4559 21.0112 13.2168 21.0112 11.8916C21.0112 10.5664 20.7642 9.32731 20.27 8.17432C19.7759 7.02132 19.0908 6.00684 18.2148 5.13086C17.3389 4.25488 16.3244 3.57357 15.1714 3.08691C14.0184 2.59277 12.7793 2.3457 11.4541 2.3457C10.1289 2.3457 8.88981 2.59277 7.73682 3.08691C6.58382 3.57357 5.57308 4.25488 4.70459 5.13086C3.8361 6.00684 3.15479 7.02132 2.66064 8.17432C2.17399 9.32731 1.93066 10.5664 1.93066 11.8916C1.93066 13.2168 2.17399 14.4559 2.66064 15.6089C3.15479 16.7619 3.8361 17.7764 4.70459 18.6523C5.58057 19.5208 6.59505 20.2021 7.74805 20.6963C8.90104 21.1904 10.1401 21.4375 11.4653 21.4375Z" fill="#8E8E93"/>
</svg>
